<svg width="100%" height="100%" viewBox="0 0 22 20" fill="none" xmlns="http://www.w3.org/2000/svg">
<path d="M1.79663 1L5.38579 4.58916M19.7966 19L16.2078 15.4112M12.6715 16.8246C12.0643 16.9398 11.4378 17 10.7971 17C6.31944 17 2.52914 14.0571 1.25488 9.99997C1.60178 8.8955 2.13514 7.87361 2.81806 6.97118M8.67531 7.87868C9.2182 7.33579 9.9682 7 10.7966 7C12.4535 7 13.7966 8.34315 13.7966 10C13.7966 10.8284 13.4608 11.5784 12.918 12.1213M8.67531 7.87868L12.918 12.1213M8.67531 7.87868L5.38579 4.58916M12.918 12.1213L5.38579 4.58916M12.918 12.1213L16.2078 15.4112M5.38579 4.58916C6.94561 3.58354 8.80319 3 10.7971 3C15.2747 3 19.065 5.94291 20.3393 10C19.6324 12.2507 18.1511 14.1585 16.2078 15.4112" stroke="#0E381E" stroke-width="2" stroke-linecap="round" stroke-linejoin="round"/>
</svg>
